<?xml version="1.0" encoding="iso-8859-1"?>
<!-- Generator: Adobe Illustrator 19.0.0, SVG Export Plug-In . SVG Version: 6.00 Build 0)  -->
<svg version="1.1" id="Layer_1" xmlns="http://www.w3.org/2000/svg" xmlns:xlink="http://www.w3.org/1999/xlink" x="0px" y="0px"
	 viewBox="0 0 492.434 492.434" style="enable-background:new 0 0 492.434 492.434;" xml:space="preserve">
<g>
	<path style="fill:#3E3D42;" d="M111.111,58.058c0-30.634-24.922-55.556-55.556-55.556v111.112
		C86.189,113.614,111.111,88.692,111.111,58.058z"/>
	<path style="fill:#57565C;" d="M0,58.058c0,30.634,24.922,55.556,55.556,55.556V2.503C24.922,2.503,0,27.425,0,58.058z"/>
	<path style="fill:#3E3D42;" d="M302.253,449.931v40c78.699,0,151.572-42.665,190.181-111.345l-34.868-19.601
		C426.03,415.083,366.518,449.931,302.253,449.931z"/>
	<path style="fill:#57565C;" d="M124.206,271.884c0-98.176,79.872-178.048,178.047-178.048v-40
		c-58.243,0-112.999,22.681-154.183,63.865c-41.184,41.184-63.865,95.94-63.865,154.183c0,58.242,22.681,112.999,63.865,154.183
		c41.184,41.184,95.94,63.865,154.183,63.865v-40C204.078,449.931,124.206,370.06,124.206,271.884z"/>
	<path style="fill:#3E3D42;" d="M457.566,184.783l34.868-19.601C453.825,96.501,380.952,53.836,302.253,53.836v40
		C366.518,93.836,426.03,128.685,457.566,184.783z"/>
</g>
<g>
</g>
<g>
</g>
<g>
</g>
<g>
</g>
<g>
</g>
<g>
</g>
<g>
</g>
<g>
</g>
<g>
</g>
<g>
</g>
<g>
</g>
<g>
</g>
<g>
</g>
<g>
</g>
<g>
</g>
</svg>
